<?xml version="1.0" encoding="utf-8"?>
<!-- Generator: Adobe Illustrator 19.0.0, SVG Export Plug-In . SVG Version: 6.00 Build 0)  -->
<svg version="1.1" id="Calque_1" xmlns="http://www.w3.org/2000/svg" xmlns:xlink="http://www.w3.org/1999/xlink" x="0px" y="0px"
	 viewBox="20 7 139 88" style="enable-background:new 20 7 139 88;" xml:space="preserve">
<style type="text/css">
	.st0{fill:#FEFEFE;}
</style>
<g id="Symbols">
	<g id="Menu-intégré" transform="translate(-60.000000, -45.000000)">
		<g id="Group-52" transform="translate(60.000000, 45.000000)">
			<g id="Group-3" transform="translate(134.000000, 0.000000)">
				<g id="Clip-2">
				</g>
				<path id="Fill-1" class="st0" d="M24,7.8c0.9,0.9,0.9,2.5,0,3.4c-0.9,0.9-2.5,0.9-3.4,0s-0.9-2.5,0-3.4
					C21.6,6.8,23.1,6.8,24,7.8"/>
			</g>
			<path id="Fill-4" class="st0" d="M148.2,17.7c1,1,1,2.6,0,3.5c-1,1-2.6,1-3.5,0c-1-1-1-2.6,0-3.5
				C145.6,16.8,147.2,16.8,148.2,17.7"/>
			<polygon id="Fill-6" class="st0" points="122.9,7 90.9,7 90.9,14.4 103.3,14.4 103.3,40 110.5,40 110.5,14.4 122.9,14.4 			"/>
			<path id="Fill-8" class="st0" d="M74.8,33.1c-5.4,0-9.8-4.3-9.8-9.6s4.4-9.6,9.8-9.6c2.3,0,4.4,0.8,6.1,2.1l5-4.9
				C82.9,8.6,79,7,74.8,7c-9.3,0-16.9,7.4-16.9,16.5S65.5,40,74.8,40c4.2,0,8.1-1.5,11.1-4.1l-5-4.9C79.1,32.3,77,33.1,74.8,33.1"/>
			<path id="Fill-10" class="st0" d="M36.9,27.1c-1.7,0-3.1-1.4-3.1-3.1s1.4-3.1,3.1-3.1c1.7,0,3.1,1.4,3.1,3.1S38.6,27.1,36.9,27.1
				 M36.9,20c-2.2,0-4,1.8-4,4s1.8,4,4,4s4-1.8,4-4S39.1,20,36.9,20"/>
			<path id="Fill-12" class="st0" d="M36.4,7c-9.1,0-16.5,7.4-16.5,16.5S27.3,40,36.4,40s16.5-7.4,16.5-16.5S45.5,7,36.4,7 M46,23.5
				c0,5.3-4.3,9.6-9.6,9.6s-9.6-4.3-9.6-9.6s4.3-9.6,9.6-9.6S46,18.2,46,23.5"/>
			<path id="Fill-14" class="st0" d="M36.9,22c1.1,0,2,0.9,2,2s-0.9,2-2,2s-2-0.9-2-2S35.8,22,36.9,22"/>
			<path id="Fill-16" class="st0" d="M142.4,33.1c-5.3,0-9.6-4.3-9.6-9.6s4.3-9.6,9.6-9.6s9.6,4.3,9.6,9.6S147.8,33.1,142.4,33.1
				 M142.4,7c-9.1,0-16.5,7.4-16.5,16.5S133.3,40,142.4,40s16.5-7.4,16.5-16.5S151.6,7,142.4,7"/>
			<polygon id="Fill-18" class="st0" points="68.9,72 158.9,72 158.9,71 68.9,71 			"/>
			<path id="Fill-20" class="st0" d="M24.1,87h3.3l-1.7-5.6L24.1,87z M24.1,79h3.7l4.1,13h-3L28,89.1h-4.6L22.6,92h-2.7L24.1,79z"/>
			<path id="Fill-21" class="st0" d="M36.6,92c-0.7,0-1.3-0.1-1.8-0.3c-0.6-0.2-1.1-0.5-1.5-0.9c-0.4-0.4-0.7-0.9-1-1.5
				c-0.2-0.6-0.4-1.3-0.4-2.1V87c0-0.8,0.1-1.5,0.4-2.1c0.2-0.6,0.6-1.1,1-1.6c0.4-0.4,0.9-0.8,1.5-1S36,82,36.6,82
				c0.5,0,1,0.1,1.5,0.2c0.5,0.1,0.9,0.3,1.3,0.6c0.4,0.3,0.7,0.7,1,1.2s0.4,1.1,0.5,1.7h-2.4c-0.1-0.5-0.3-1-0.6-1.2
				c-0.3-0.3-0.7-0.4-1.3-0.4c-0.7,0-1.2,0.2-1.6,0.7c-0.4,0.5-0.6,1.2-0.6,2.1V87c0,1,0.2,1.7,0.6,2.2c0.4,0.5,0.9,0.7,1.6,0.7
				c0.5,0,0.9-0.2,1.3-0.5c0.4-0.3,0.6-0.8,0.6-1.4h2.4c0,0.6-0.2,1.1-0.4,1.6s-0.5,0.9-0.9,1.2c-0.4,0.3-0.8,0.6-1.3,0.8
				C37.8,91.9,37.2,92,36.6,92"/>
			<path id="Fill-22" class="st0" d="M47.6,92c-0.7,0-1.3-0.1-1.8-0.3c-0.6-0.2-1.1-0.5-1.5-0.9c-0.4-0.4-0.7-0.9-1-1.5
				c-0.2-0.6-0.4-1.3-0.4-2.1V87c0-0.8,0.1-1.5,0.4-2.1c0.2-0.6,0.6-1.1,1-1.6c0.4-0.4,0.9-0.8,1.5-1S47,82,47.6,82
				c0.5,0,1,0.1,1.5,0.2c0.5,0.1,0.9,0.3,1.3,0.6c0.4,0.3,0.7,0.7,1,1.2s0.4,1.1,0.5,1.7h-2.4c-0.1-0.5-0.3-1-0.6-1.2
				c-0.3-0.3-0.7-0.4-1.3-0.4c-0.7,0-1.2,0.2-1.6,0.7c-0.4,0.5-0.6,1.2-0.6,2.1V87c0,1,0.2,1.7,0.6,2.2c0.4,0.5,0.9,0.7,1.6,0.7
				c0.5,0,0.9-0.2,1.3-0.5c0.4-0.3,0.6-0.8,0.6-1.4h2.4c0,0.6-0.2,1.1-0.4,1.6s-0.5,0.9-0.9,1.2c-0.4,0.3-0.8,0.6-1.3,0.8
				C48.8,91.9,48.2,92,47.6,92"/>
			<path id="Fill-23" class="st0" d="M58.5,86c0-0.7-0.2-1.3-0.6-1.6c-0.3-0.3-0.8-0.5-1.4-0.5c-0.6,0-1,0.2-1.4,0.6
				c-0.4,0.4-0.6,0.9-0.7,1.6h4.1V86z M56.6,92c-0.7,0-1.3-0.1-1.9-0.3c-0.6-0.2-1.1-0.5-1.5-1c-0.4-0.4-0.8-0.9-1-1.5
				c-0.2-0.6-0.4-1.3-0.4-2.1V87c0-0.8,0.1-1.4,0.4-2.1c0.2-0.6,0.6-1.1,1-1.6c0.4-0.4,0.9-0.8,1.5-1s1.2-0.4,1.8-0.4
				s1.1,0.1,1.7,0.3c0.5,0.2,1,0.5,1.4,0.9c0.4,0.4,0.7,0.9,1,1.5c0.2,0.6,0.4,1.4,0.4,2.2v0.7h-6.5c0,0.8,0.2,1.4,0.6,1.9
				c0.4,0.4,0.9,0.6,1.6,0.6c0.6,0,1-0.1,1.3-0.4c0.3-0.2,0.5-0.6,0.6-1h2.3c-0.1,1-0.6,1.8-1.3,2.4C58.8,91.7,57.8,92,56.6,92z"/>
			<path id="Fill-24" class="st0" d="M62.9,82.2h2.7v1.6c0.2-0.5,0.6-0.9,1.1-1.3c0.5-0.3,1.2-0.5,2-0.5c0.5,0,0.9,0.1,1.3,0.2
				c0.4,0.1,0.7,0.4,1,0.7s0.5,0.7,0.7,1.2s0.2,1,0.2,1.7V92h-2.7v-5.8c0-0.7-0.1-1.2-0.4-1.5s-0.7-0.5-1.3-0.5
				c-0.6,0-1.1,0.2-1.4,0.5c-0.4,0.4-0.6,0.9-0.6,1.6V92h-2.6V82.2z"/>
			<path id="Fill-25" class="st0" d="M77.3,92c-1,0-1.8-0.3-2.3-0.8s-0.8-1.3-0.8-2.3V84h-1.3v-1.9h1.2V80h2.7v2.1h2V84h-2v4.7
				c0,0.4,0.1,0.7,0.3,0.9c0.2,0.2,0.4,0.3,0.8,0.3c0.2,0,0.4,0,0.5,0c0.2,0,0.3-0.1,0.5-0.1v2.1c-0.2,0.1-0.4,0.1-0.7,0.2
				C77.9,92,77.6,92,77.3,92"/>
			<path id="Fill-26" class="st0" d="M82.2,92c-0.5,0-0.9-0.1-1.3-0.2c-0.4-0.1-0.7-0.4-1-0.7s-0.5-0.7-0.7-1.2s-0.2-1-0.2-1.7V82
				h2.7v5.9c0,0.6,0.1,1.1,0.4,1.5c0.3,0.4,0.7,0.5,1.3,0.5c0.6,0,1-0.2,1.4-0.5c0.4-0.4,0.6-0.9,0.6-1.6V82h2.5v9.8h-2.7v-1.5
				c-0.2,0.5-0.6,0.9-1.1,1.2C83.6,91.8,83,92,82.2,92"/>
			<path id="Fill-27" class="st0" d="M89.9,82.2h2.8V84c0.3-0.7,0.7-1.2,1.2-1.5s1.2-0.5,2-0.5v2.5c-1,0-1.8,0.2-2.4,0.5
				c-0.6,0.4-0.8,1-0.8,2v5h-2.8V82.2z"/>
			<path id="Fill-28" class="st0" d="M102.5,86c0-0.7-0.2-1.3-0.6-1.6c-0.3-0.3-0.8-0.5-1.4-0.5s-1,0.2-1.4,0.6
				c-0.4,0.4-0.6,0.9-0.7,1.6h4.1V86z M100.6,92c-0.7,0-1.3-0.1-1.9-0.3c-0.6-0.2-1.1-0.5-1.5-1c-0.4-0.4-0.8-0.9-1-1.5
				c-0.2-0.6-0.4-1.3-0.4-2.1V87c0-0.8,0.1-1.4,0.4-2.1c0.2-0.6,0.6-1.1,1-1.6c0.4-0.4,0.9-0.8,1.5-1s1.2-0.4,1.8-0.4
				c0.6,0,1.1,0.1,1.7,0.3c0.5,0.2,1,0.5,1.4,0.9c0.4,0.4,0.7,0.9,1,1.5c0.2,0.6,0.4,1.4,0.4,2.2v0.7h-6.5c0,0.8,0.2,1.4,0.6,1.9
				c0.4,0.4,0.9,0.6,1.6,0.6c0.6,0,1-0.1,1.3-0.4c0.3-0.2,0.5-0.6,0.6-1h2.4c-0.1,1-0.6,1.8-1.3,2.4C102.8,91.7,101.8,92,100.6,92z"
				/>
			<path id="Fill-29" class="st0" d="M113.9,90.8c0.8,0,1.4-0.1,2-0.3c0.6-0.2,1-0.5,1.4-1c0.4-0.4,0.7-0.9,0.8-1.5
				c0.2-0.6,0.3-1.3,0.3-2v-0.1c0-0.7-0.1-1.3-0.3-1.9c-0.2-0.6-0.4-1.1-0.8-1.5c-0.4-0.4-0.8-0.7-1.4-1c-0.6-0.2-1.3-0.3-2.1-0.3
				h-1.6v9.7L113.9,90.8L113.9,90.8z M110.9,80h3.1c1,0,1.9,0.2,2.6,0.5s1.4,0.7,1.8,1.2c0.5,0.5,0.9,1.1,1.1,1.9
				c0.2,0.7,0.4,1.5,0.4,2.3V86c0,0.8-0.1,1.6-0.4,2.3c-0.2,0.7-0.6,1.4-1.1,1.9s-1.1,1-1.9,1.3c-0.7,0.3-1.6,0.5-2.7,0.5h-2.9V80z"
				/>
			<path id="Fill-30" class="st0" d="M123.2,92h1.5v-8.5h-1.5V92z M123.9,81.8c-0.3,0-0.5-0.1-0.7-0.3c-0.2-0.2-0.3-0.4-0.3-0.6
				s0.1-0.5,0.3-0.6c0.2-0.2,0.4-0.3,0.7-0.3s0.5,0.1,0.7,0.3s0.3,0.4,0.3,0.6s-0.1,0.5-0.3,0.6C124.4,81.7,124.2,81.8,123.9,81.8z"
				/>
			<path id="Fill-31" class="st0" d="M130.9,90.4c0.4,0,0.7-0.1,1.1-0.2c0.3-0.1,0.6-0.3,0.9-0.6c0.2-0.3,0.4-0.6,0.6-1
				c0.1-0.4,0.2-0.8,0.2-1.3v-0.1c0-1-0.2-1.7-0.7-2.3c-0.5-0.5-1.1-0.8-2-0.8c-0.4,0-0.8,0.1-1.1,0.2c-0.3,0.2-0.6,0.4-0.8,0.6
				c-0.2,0.3-0.4,0.6-0.5,1c-0.1,0.4-0.2,0.8-0.2,1.2v0.1c0,0.5,0.1,0.9,0.2,1.3c0.1,0.4,0.3,0.7,0.6,0.9c0.2,0.3,0.5,0.5,0.8,0.6
				C130.2,90.3,130.6,90.4,130.9,90.4 M130.9,95c-0.6,0-1.2-0.1-1.6-0.2c-0.5-0.1-0.8-0.3-1.1-0.6c-0.3-0.2-0.5-0.5-0.7-0.8
				s-0.3-0.7-0.3-1h1.4c0.2,1,1,1.5,2.4,1.5c0.8,0,1.5-0.2,2-0.6c0.5-0.4,0.7-1.1,0.7-2V90c-0.1,0.2-0.3,0.4-0.5,0.6
				s-0.4,0.4-0.7,0.5c-0.3,0.1-0.5,0.3-0.8,0.4c-0.3,0.1-0.6,0.1-0.9,0.1c-0.5,0-1.1-0.1-1.5-0.3c-0.5-0.2-0.9-0.5-1.2-0.9
				c-0.3-0.4-0.6-0.8-0.8-1.3c-0.2-0.5-0.3-1.1-0.3-1.7v-0.1c0-0.6,0.1-1.1,0.3-1.7c0.2-0.5,0.5-1,0.8-1.4c0.3-0.4,0.8-0.7,1.2-0.9
				c0.5-0.2,1-0.3,1.6-0.3c0.7,0,1.3,0.2,1.7,0.5s0.8,0.7,1,1.1v-1.4h1.3v8.1c0,0.6-0.1,1.2-0.3,1.7s-0.5,0.9-0.8,1.2
				c-0.4,0.3-0.8,0.5-1.3,0.7C132.1,94.9,131.6,95,130.9,95"/>
			<path id="Fill-32" class="st0" d="M137.2,92h1.5v-8.5h-1.5V92z M137.9,81.8c-0.3,0-0.5-0.1-0.7-0.3c-0.2-0.2-0.3-0.4-0.3-0.6
				s0.1-0.5,0.3-0.6c0.2-0.2,0.4-0.3,0.7-0.3s0.5,0.1,0.7,0.3s0.3,0.4,0.3,0.6s-0.1,0.5-0.3,0.6C138.4,81.7,138.2,81.8,137.9,81.8z"
				/>
			<path id="Fill-33" class="st0" d="M144.8,92c-0.8,0-1.5-0.2-1.9-0.6c-0.4-0.4-0.6-0.9-0.6-1.5v-5h-1.3v-1.1h1.3V82h1.4v1.8h2.1
				v1.1h-2.1v4.8c0,0.8,0.4,1.2,1.1,1.2c0.2,0,0.4,0,0.6,0c0.2,0,0.3-0.1,0.5-0.1v1.1c-0.2,0.1-0.3,0.1-0.5,0.1
				C145.2,92,145.1,92,144.8,92"/>
			<path id="Fill-34" class="st0" d="M149.9,90.9c0.4,0,0.7,0,1-0.1c0.3-0.1,0.6-0.2,0.8-0.4s0.4-0.4,0.5-0.7
				c0.1-0.3,0.2-0.6,0.2-0.9v-1.1h-1.2c-0.4,0-0.8,0-1.2,0.1c-0.4,0.1-0.7,0.2-1,0.3s-0.5,0.3-0.6,0.5c-0.2,0.2-0.2,0.5-0.2,0.8
				c0,0.5,0.1,0.8,0.4,1.1C148.9,90.8,149.3,90.9,149.9,90.9 M149.8,92c-0.4,0-0.8,0-1.1-0.1c-0.4-0.1-0.7-0.3-0.9-0.5
				c-0.3-0.2-0.5-0.5-0.6-0.8s-0.2-0.7-0.2-1.1c0-0.5,0.1-0.9,0.4-1.3c0.2-0.3,0.6-0.6,1-0.8c0.4-0.2,0.9-0.4,1.4-0.5
				c0.5-0.1,1.1-0.1,1.6-0.1h1.3v-0.6c0-0.7-0.1-1.2-0.4-1.5c-0.3-0.3-0.8-0.5-1.4-0.5c-1.2,0-1.9,0.5-2,1.5h-1.4
				c0-0.5,0.2-0.9,0.4-1.3c0.2-0.3,0.5-0.6,0.8-0.8c0.3-0.2,0.7-0.4,1.1-0.5c0.4-0.1,0.8-0.1,1.2-0.1s0.8,0,1.2,0.1
				c0.4,0.1,0.7,0.3,1,0.5s0.5,0.6,0.7,1c0.2,0.4,0.3,0.9,0.3,1.5v5.7h-1.4v-1.1c-0.3,0.4-0.7,0.7-1.1,0.9
				C151.3,91.8,150.4,92,149.8,92"/>
			<polygon id="Fill-35" class="st0" points="156.9,92 158.9,92 158.9,79 156.9,79 			"/>
			<polygon id="Fill-36" class="st0" points="22.4,50.8 19.9,50.8 19.9,49 26.9,49 26.9,50.8 24.4,50.8 24.4,58 22.4,58 			"/>
			<path id="Fill-37" class="st0" d="M38.1,54.4c0-0.3-0.1-0.6-0.3-0.8s-0.5-0.3-0.8-0.3c-0.2,0-0.4,0-0.5,0.1
				c-0.2,0.1-0.3,0.1-0.4,0.2c-0.1,0.1-0.2,0.2-0.3,0.3s-0.1,0.3-0.1,0.4L38.1,54.4L38.1,54.4z M39.6,56.9c-0.3,0.4-0.7,0.6-1.1,0.8
				c-0.4,0.2-0.9,0.3-1.4,0.3c-0.4,0-0.9-0.1-1.3-0.2c-0.4-0.1-0.7-0.3-1-0.6s-0.5-0.6-0.7-0.9c-0.1-0.4-0.2-0.8-0.2-1.3
				s0.1-0.9,0.3-1.2c0.2-0.4,0.4-0.7,0.7-0.9c0.3-0.3,0.6-0.5,1-0.6s0.8-0.2,1.3-0.2c0.4,0,0.8,0.1,1.1,0.2c0.3,0.1,0.6,0.3,0.9,0.6
				c0.2,0.3,0.4,0.6,0.5,0.9c0.1,0.4,0.2,0.8,0.2,1.2v0.6h-4.2c0.1,0.3,0.2,0.6,0.5,0.8c0.2,0.2,0.5,0.3,0.9,0.3
				c0.3,0,0.5-0.1,0.8-0.2c0.2-0.1,0.4-0.3,0.5-0.5L39.6,56.9z"/>
			<path id="Fill-38" class="st0" d="M53.8,54c-0.1-0.1-0.2-0.2-0.3-0.3c-0.2-0.1-0.3-0.1-0.5-0.1c-0.4,0-0.8,0.1-1,0.4
				c-0.2,0.3-0.4,0.6-0.4,1s0.1,0.8,0.4,1c0.2,0.3,0.6,0.4,1,0.4c0.2,0,0.4,0,0.5-0.1s0.3-0.2,0.3-0.3l1.1,1.2
				c-0.3,0.3-0.6,0.5-0.9,0.6c-0.4,0.1-0.7,0.2-1,0.2c-0.4,0-0.8-0.1-1.2-0.2c-0.4-0.1-0.7-0.3-1-0.6s-0.5-0.6-0.6-0.9
				c-0.2-0.4-0.3-0.8-0.3-1.3s0.1-0.9,0.2-1.2c0.2-0.4,0.4-0.7,0.6-0.9c0.3-0.3,0.6-0.5,1-0.6s0.8-0.2,1.2-0.2c0.3,0,0.7,0.1,1,0.2
				c0.4,0.1,0.7,0.3,0.9,0.6L53.8,54z"/>
			<path id="Fill-39" class="st0" d="M65.5,48v4l0,0c0-0.1,0.1-0.2,0.2-0.3s0.2-0.2,0.3-0.3c0.1-0.1,0.3-0.2,0.4-0.2
				c0.2-0.1,0.3-0.1,0.5-0.1c0.4,0,0.7,0.1,1,0.2c0.2,0.1,0.4,0.3,0.6,0.6c0.1,0.2,0.2,0.5,0.3,0.9c0,0.3,0.1,0.7,0.1,1.1V57h-1.6
				v-2.8c0-0.2,0-0.3,0-0.5s0-0.3-0.1-0.5s-0.1-0.3-0.2-0.4c-0.1-0.1-0.3-0.1-0.5-0.1s-0.4,0-0.5,0.1s-0.2,0.2-0.3,0.3
				c-0.1,0.1-0.1,0.3-0.1,0.5s0,0.4,0,0.5V57h-1.7v-9H65.5z"/>
			<path id="Fill-40" class="st0" d="M78.9,51.1h1.5v0.8l0,0c0-0.1,0.1-0.2,0.2-0.3s0.2-0.2,0.3-0.3c0.1-0.1,0.3-0.2,0.4-0.2
				c0.2-0.1,0.3-0.1,0.5-0.1c0.4,0,0.7,0.1,1,0.2c0.2,0.1,0.4,0.3,0.6,0.6c0.1,0.2,0.2,0.5,0.3,0.9c0,0.3,0.1,0.7,0.1,1.1V57h-1.6
				v-2.9c0-0.2,0-0.3,0-0.5s0-0.3-0.1-0.5s-0.1-0.3-0.2-0.4c-0.1-0.1-0.3-0.1-0.5-0.1s-0.4,0-0.5,0.1s-0.2,0.2-0.3,0.3
				c-0.1,0.1-0.1,0.3-0.1,0.5s0,0.4,0,0.6V57h-1.6V51.1z"/>
			<path id="Fill-41" class="st0" d="M95.6,55c0,0.4,0.1,0.8,0.4,1c0.2,0.3,0.6,0.4,1,0.4s0.8-0.1,1-0.4c0.2-0.3,0.4-0.6,0.4-1
				s-0.1-0.8-0.4-1c-0.2-0.3-0.6-0.4-1-0.4s-0.8,0.1-1,0.4C95.8,54.2,95.6,54.6,95.6,55 M93.9,55c0-0.5,0.1-0.9,0.2-1.2
				c0.2-0.4,0.4-0.7,0.6-0.9c0.3-0.3,0.6-0.5,1-0.6s0.8-0.2,1.2-0.2s0.8,0.1,1.2,0.2c0.4,0.1,0.7,0.3,1,0.6s0.5,0.6,0.6,0.9
				c0.2,0.4,0.2,0.8,0.2,1.2c0,0.5-0.1,0.9-0.2,1.2c-0.2,0.4-0.4,0.7-0.6,0.9c-0.3,0.3-0.6,0.5-1,0.6c-0.4,0.2-0.8,0.3-1.2,0.3
				s-0.8-0.1-1.2-0.2c-0.4-0.1-0.7-0.3-1-0.6s-0.5-0.6-0.6-0.9C94,55.9,93.9,55.5,93.9,55"/>
			<polygon id="Fill-42" class="st0" points="109.9,57 111.9,57 111.9,48 109.9,48 			"/>
			<path id="Fill-43" class="st0" d="M122.6,55c0,0.4,0.1,0.8,0.4,1c0.2,0.3,0.6,0.4,1,0.4s0.7-0.1,1-0.4c0.2-0.3,0.4-0.6,0.4-1
				s-0.1-0.8-0.4-1c-0.2-0.3-0.6-0.4-1-0.4s-0.8,0.1-1,0.4C122.8,54.2,122.6,54.6,122.6,55 M120.9,55c0-0.5,0.1-0.9,0.2-1.2
				c0.2-0.4,0.4-0.7,0.6-0.9c0.3-0.3,0.6-0.5,1-0.6s0.8-0.2,1.2-0.2c0.4,0,0.8,0.1,1.2,0.2c0.4,0.1,0.7,0.3,1,0.6s0.5,0.6,0.6,0.9
				c0.2,0.4,0.2,0.8,0.2,1.2c0,0.5-0.1,0.9-0.2,1.2c-0.2,0.4-0.4,0.7-0.6,0.9c-0.3,0.3-0.6,0.5-1,0.6s-0.8,0.2-1.2,0.2
				c-0.4,0-0.8-0.1-1.2-0.2c-0.4-0.1-0.7-0.3-1-0.6s-0.5-0.6-0.6-0.9C121,55.9,120.9,55.5,120.9,55"/>
			<path id="Fill-44" class="st0" d="M138.6,54.1c0,0.2,0,0.4,0.1,0.6c0.1,0.2,0.2,0.3,0.3,0.5c0.1,0.1,0.3,0.2,0.4,0.3
				c0.2,0.1,0.3,0.1,0.5,0.1s0.4,0,0.5-0.1c0.2-0.1,0.3-0.2,0.4-0.3c0.1-0.1,0.2-0.3,0.3-0.5s0.1-0.4,0.1-0.6c0-0.2,0-0.4-0.1-0.6
				c-0.1-0.2-0.2-0.3-0.3-0.5c-0.1-0.1-0.3-0.2-0.4-0.3c-0.2-0.1-0.3-0.1-0.5-0.1s-0.4,0-0.5,0.1c-0.2,0.1-0.3,0.2-0.4,0.3
				c-0.1,0.1-0.2,0.3-0.3,0.5S138.6,53.9,138.6,54.1z M142.9,56.6c0,1.1-0.3,2-0.8,2.6s-1.3,0.9-2.4,0.9c-0.5,0-1-0.1-1.5-0.2
				c-0.5-0.1-0.9-0.3-1.3-0.7l0.9-1.5c0.3,0.2,0.5,0.4,0.8,0.6c0.3,0.1,0.6,0.2,1,0.2c0.5,0,0.9-0.1,1.2-0.4c0.2-0.3,0.4-0.6,0.4-1
				v-0.6l0,0c-0.2,0.3-0.4,0.5-0.7,0.6s-0.6,0.2-0.8,0.2c-0.4,0-0.8-0.1-1.1-0.2c-0.3-0.2-0.6-0.4-0.9-0.6c-0.2-0.3-0.4-0.6-0.6-1
				c-0.1-0.4-0.2-0.8-0.2-1.2s0.1-0.8,0.2-1.1c0.1-0.4,0.3-0.7,0.5-1s0.5-0.5,0.8-0.7s0.7-0.3,1.1-0.3c0.2,0,0.5,0,0.7,0.1
				s0.4,0.1,0.5,0.2c0.2,0.1,0.3,0.2,0.4,0.3c0.1,0.1,0.2,0.2,0.3,0.3l0,0v-0.8h1.6L142.9,56.6L142.9,56.6z"/>
			<path id="Fill-45" class="st0" d="M156.1,58c-0.1,0.3-0.3,0.6-0.4,0.9c-0.1,0.2-0.3,0.5-0.5,0.6c-0.2,0.2-0.4,0.3-0.7,0.4
				c-0.3,0.1-0.6,0.1-1.1,0.1s-1-0.1-1.4-0.2l0.3-1.5c0.3,0.1,0.6,0.2,0.9,0.2c0.2,0,0.4,0,0.5-0.1s0.2-0.1,0.3-0.2
				c0.1-0.1,0.2-0.2,0.2-0.3c0.1-0.1,0.1-0.3,0.2-0.4l0.1-0.3l-2.6-6.2h2.1l1.6,4l0,0l1.4-4h2L156.1,58z"/>
			<path id="Fill-46" class="st0" d="M21.8,70.3c0.4,0,0.6-0.2,0.6-0.6l0,0c0-0.2-0.1-0.3-0.2-0.4c-0.1-0.1-0.3-0.1-0.5-0.1h-0.3
				v1.1H21.8z M19.9,68h2c0.7,0,1.2,0.2,1.5,0.5s0.5,0.7,0.5,1.3l0,0c0,0.5-0.2,0.9-0.5,1.2c-0.3,0.3-0.8,0.4-1.5,0.4h-0.5V73h-1.5
				V68z"/>
			<path id="Fill-47" class="st0" d="M27.8,71.1h1l-0.5-1.8L27.8,71.1z M27.4,68h2l1.5,5h-1.6l-0.2-0.8h-1.5L27.3,73h-1.4L27.4,68z"
				/>
			<path id="Fill-48" class="st0" d="M36.1,70.3c0.5,0,0.7-0.2,0.7-0.5l0,0c0-0.2-0.1-0.3-0.2-0.4c-0.1-0.1-0.3-0.1-0.5-0.1h-0.4
				v1.1h0.4V70.3z M33.9,68h2.3c0.8,0,1.4,0.1,1.8,0.4c0.4,0.3,0.6,0.7,0.6,1.2l0,0c0,0.3-0.1,0.6-0.3,0.8c-0.2,0.2-0.4,0.4-0.7,0.5
				l1.3,2H37l-1.1-1.7h-0.3V73h-1.7V68z"/>
			<polygon id="Fill-49" class="st0" points="42.1,69.2 40.9,69.2 40.9,68 44.9,68 44.9,69.2 43.7,69.2 43.7,73 42.1,73 			"/>
			<path id="Fill-50" class="st0" d="M52.9,71.8c0.3,0,0.6-0.1,0.8-0.3c0.2-0.2,0.3-0.5,0.3-0.9v-0.1c0-0.4-0.1-0.7-0.3-0.9
				s-0.5-0.3-0.8-0.3s-0.6,0.1-0.8,0.3c-0.2,0.2-0.3,0.5-0.3,0.9v0.1c0,0.4,0.1,0.7,0.3,1C52.3,71.7,52.6,71.8,52.9,71.8 M52.9,73
				c-0.5,0-0.9-0.1-1.2-0.2c-0.4-0.1-0.7-0.3-0.9-0.5c-0.3-0.2-0.5-0.5-0.6-0.8s-0.2-0.6-0.2-1v-0.1c0-0.4,0.1-0.7,0.2-1
				s0.4-0.6,0.6-0.8c0.3-0.2,0.6-0.4,1-0.5c0.4-0.1,0.8-0.2,1.2-0.2s0.8,0.1,1.2,0.2c0.4,0.1,0.7,0.3,1,0.5s0.5,0.5,0.6,0.8
				c0.2,0.3,0.2,0.6,0.2,1v0.1c0,0.4-0.1,0.7-0.2,1c-0.1,0.3-0.3,0.6-0.6,0.8s-0.6,0.4-1,0.5C53.7,72.9,53.3,73,52.9,73"/>
			<polygon id="Fill-51" class="st0" points="58.9,68 61.9,68 61.9,69.2 60.3,69.2 60.3,70.2 61.6,70.2 61.6,71.3 60.3,71.3 
				60.3,73 58.9,73 			"/>
		</g>
	</g>
</g>
</svg>
